<?xml version="1.0" encoding="utf-8"?>
<!-- Generator: Adobe Illustrator 22.0.1, SVG Export Plug-In . SVG Version: 6.00 Build 0)  -->
<svg version="1.1" id="Calque_1" xmlns="http://www.w3.org/2000/svg" xmlns:xlink="http://www.w3.org/1999/xlink" x="0px" y="0px"
	viewBox="0 0 432 432" style="enable-background:new 0 0 432 432;" xml:space="preserve">
<style type="text/css">
	.st0{fill:#940808;}
	.st1{fill:#E56B6B;}
	.st2{fill:#1A1A1A;}
	.st3{fill:#DD5151;}
	.st4{fill:#6B313C;}
	.st5{fill:#B65165;}
	.st6{fill:#EB899F;}
	.st7{fill:#9C0000;}
	.st8{fill:#4D4D4D;}
	.st9{fill:#C4924B;}
	.st10{fill:#333333;}
	.st11{fill-rule:evenodd;clip-rule:evenodd;fill:#9C0000;}
	.st12{fill:#F68484;}
	.st13{fill:#AB1F1F;}
	.st14{fill:#A45F6F;}
	.st15{fill:#DEB0B0;}
	.st16{fill:#BA3434;}
	.st17{fill:#A57B7C;}
	.st18{fill:#F2F2F2;}
	.st19{fill:#EC1C24;}
	.st20{fill:#A54550;}
	.st21{fill:#FFFFFF;}
	.st22{fill:#AE5B65;}
	.st23{fill:#F5D3D1;}
	.st24{fill:#687A6E;}
	.st25{fill:#231F20;}
	.st26{fill-rule:evenodd;clip-rule:evenodd;fill:#333333;}
	.st27{fill:#F4E6E5;}
	.st28{fill:#EFBB75;}
	.st29{fill:#D8A160;}
	.st30{fill:#EFDDCA;}
	.st31{fill:#A55B6A;}
	.st32{fill:#92A182;}
	.st33{fill:#CCCCCC;}
	.st34{fill:#944E3C;}
	.st35{fill:#C1272D;}
	.st36{fill:#C67B32;}
	.st37{fill:#72696D;}
	.st38{fill:#E3A8A4;}
	.st39{fill:#9FC8C2;}
	.st40{fill:#8B8285;}
	.st41{fill:#71796C;}
	.st42{fill-rule:evenodd;clip-rule:evenodd;fill:#E9C8C3;}
	.st43{fill:#C06666;}
	.st44{fill:#96A4A5;}
	.st45{fill:#C53C3C;}
	.st46{fill:#EA6B74;}
	.st47{fill:#406D8F;}
	.st48{fill:#77A3C0;}
	.st49{fill:#F25850;}
	.st50{fill:#253245;}
	.st51{fill:#FFAA96;}
	.st52{fill:#E0C8A4;}
	.st53{fill:#39ABA9;}
	.st54{fill:#F6DE96;}
	.st55{fill:#F1D2CD;}
	.st56{fill:#E8C3C3;}
	.st57{fill:#AB2130;}
	.st58{fill:#982A3A;}
	.st59{fill:#E19F78;}
	.st60{fill:#FEDED2;}
	.st61{fill:#FFB0A1;}
	.st62{fill:#DB3434;}
	.st63{fill:#C76B6A;}
	.st64{fill:#E05E90;}
	.st65{fill:#CE9F5C;}
	.st66{fill:#FF8D71;}
	.st67{fill:#B75041;}
	.st68{fill:#FCE4B6;}
	.st69{fill:#B24A58;}
	.st70{fill:#3C0303;}
	.st71{fill:#8B1111;}
	.st72{fill:#B02121;}
	.st73{fill:#29285B;}
	.st74{fill:#E6E6E6;}
	.st75{fill:#D59D79;}
	.st76{fill:#F0C880;}
	.st77{fill:#B3B3B3;}
	.st78{fill:#C6C6C6;}
	.st79{fill:#A6A6A6;}
	.st80{fill:#603813;}
	.st81{fill:#BC2A34;}
	.st82{fill:#999966;}
	.st83{fill:#666633;}
	.st84{fill:#CC6666;}
	.st85{fill:#663333;}
	.st86{fill-rule:evenodd;clip-rule:evenodd;fill:#FEDED2;}
	.st87{fill:#534741;}
</style>
<g>
	<path class="st4" d="M313.1,283.5c0.3-0.1,0.7-0.3,1-0.4c5.4-2.3,10.9-4.2,16.6-5.3c5.6-1.1,11.3-1,16.7,0.8c1.5,0.5,3,1.2,4.4,2.1
		c5,3.2,7,8.3,5.6,14.1c-0.6,2.4-1.6,4.6-2.8,6.8c-2.9,4.8-6.7,8.7-11.2,12c-4.7,3.4-9.8,6.1-15.2,8.5c-8.8,3.9-17.9,7.2-27.4,9.4
		c-9.5,2.2-19.1,2.9-28.8,2.4c-4.2-0.2-8.4-0.5-12.5-1.1c-7.8-1.2-15.2-3.9-22.1-7.7c-8.7-4.8-15.8-11.3-21.1-19.8
		c-1.4-2.2-2.8-4.4-3.7-6.8c-0.3-0.7-0.5-1.4-0.6-2.1c-0.2-1,0.2-1.8,1.1-2.4c0.9-0.5,1.7-0.4,2.5,0.2c1,0.7,2,1.4,3,2.1
		c3.2,2.1,6.7,3.5,10.5,4.1c4.5,0.7,9,0.8,13.5,0c3.5-0.6,6.8-1.7,9.9-3.4c4-2.2,7.6-4.9,10.8-8c4.9-4.7,9.3-9.8,13.7-14.9
		c4-4.6,7.9-9.3,12.2-13.6c3.8-3.8,7.9-7.3,12.6-10.1c3.3-2,6.8-3.5,10.7-4c1.8-0.2,3.6-0.2,5.4,0.3c1.1,0.3,2.3,0.6,3.4,1.1
		c3,1.4,4.7,3.8,5.5,7c0.8,3,0.3,5.9-0.6,8.8c-1,3.2-2.6,6.2-4.4,9c-2.5,3.7-5.3,7-8.3,10.2c-0.2,0.3-0.5,0.5-0.7,0.8
		C313,283.4,313,283.5,313.1,283.5z M322.6,318.2c-13.6-12.5-24.5-27-34.8-42.1c-2.5,2.8-4.9,5.5-7.4,8.2c-2.5,2.7-5.1,5.3-7.7,8
		c1.2,1.9,2.3,3.9,3.6,5.9c2.1,3.2,4.3,6.4,6.6,9.6c3.4,4.7,6.8,9.3,10.8,13.5c1.3,1.4,2.7,2.6,4,4c0.6,0.6,1,0.7,1.7,0.5
		c7.3-1.6,14.2-4,21.1-6.7C321.2,318.8,321.8,318.5,322.6,318.2z M291.4,327.2c0-0.1,0.1-0.2,0.1-0.3c-4.7-4.5-8.9-9.5-12.7-14.7
		c-3.9-5.3-7.7-10.6-10.8-16.4c-5.6,4.2-12,6.6-18.7,8.6c0.4,1.8,0.8,3.6,1.3,5.4c1.6,5.6,4.1,10.8,6.8,15.9c0.5,0.9,1,1.2,1.9,1.4
		c3.9,0.6,7.8,0.9,11.7,1c4.8,0.2,9.7,0.2,14.5-0.2C287.4,327.7,289.4,327.4,291.4,327.2z M346.4,303.1c-0.4-0.4-0.8-0.7-1.1-1
		c-2-2-4.1-4-6.1-6.1c-3.6-3.9-7.1-7.8-9.4-12.7c-4.1,0.4-19,6.1-22.7,8.6c6.8,8,13.3,16.4,21.3,23.4
		C335.1,312.3,341.4,308.7,346.4,303.1z M307,256.3c-5.8,4.4-10.7,9.6-15.3,15.1c4,5.3,7.9,10.6,11.9,15.9c4.7-5.5,9.7-10.6,13.3-17
		c-2.2-1.9-3.7-4.4-5.3-6.7C309.9,261.3,308.5,258.8,307,256.3z M250.7,324.8c-3-6.3-5.5-12.5-6.3-19.5c-8.2,1.3-16,0.3-23.6-3.2
		C227,312.2,238.2,320.8,250.7,324.8z M336.5,282.4c1.6,2.5,12,14,13.7,15.2c0.1-0.1,0.2-0.2,0.3-0.3c0.6-1.5,1.2-3,1.7-4.5
		c0.3-1,0.4-2.1,0.1-3.2c-0.4-2.2-1.9-3.6-3.7-4.7C345,282.8,340.9,282.4,336.5,282.4z M312.1,253.1c2.6,3.8,5.1,7.5,7.7,11.3
		c0.1-0.3,0.3-0.5,0.3-0.8c0.4-1.7,0.9-3.4,1.2-5.1c0.3-1.4,0.1-2.9-0.4-4.3c-0.7-1.9-1.8-2.7-3.9-2.7
		C315.3,251.6,313.7,252.2,312.1,253.1z"/>
	<g>
		<path class="st14" d="M134.5,274.9c0.1-2,0.1-3.8,0.3-5.6c1.2-9,5.7-15.8,14-20c5.5-2.7,11.3-4.3,17.5-4.2c4.5,0,8.7,1.1,12.7,3
			c4.6,2.1,8.1,5.4,11.1,9.4c3,4.1,5.3,8.7,7.2,13.4c3.7,9,6.5,18.3,8.5,27.8c1.6,7.5,2.6,15,3.1,22.6c0.4,6.6,0.8,13.1,1.1,19.7
			c0.1,1.2,0,2.5-0.2,3.7c-0.4,3-2.1,5.1-4.9,6.3c-2,0.8-4,1.5-6,2c-2.7,0.7-5.5,1.2-8.3,1.8c-5.9,1.1-11.9,1.3-17.9,1.2
			c-2.6,0-5.3-0.2-7.9-0.3c-4.9-0.3-9.8-1-14.6-2.1c-7-1.6-13.9-3.7-20.5-6.7c-9.8-4.4-18.4-10.3-25.7-18.2
			c-5.8-6.3-10.2-13.4-12.8-21.6c-1.4-4.4-2-8.8-1.7-13.4c0.6-10.1,6.5-21.4,19.4-25c9.2-2.6,17.6-0.7,24.9,5.5
			C134,274.4,134.2,274.6,134.5,274.9z M142.5,290.7c0.1,2.3-0.1,4.4-0.7,6.4c-2,6.8-6.8,10.7-13.4,12.5c-2,0.6-4.1,0.5-6-0.3
			c-3.8-1.6-5.6-4.6-6-8.6c-0.1-0.6,0.2-1.3,0.4-1.9c0.3-0.8,1.1-1.2,2-1.2c0.9,0.1,1.5,0.6,1.8,1.4c0.2,0.5,0.3,1,0.4,1.5
			c0.2,0.6,0.3,1.1,0.6,1.7c0.8,1.5,2,2.1,3.6,2.1c0.6,0,1.2-0.1,1.8-0.3c3.1-1,5.7-2.9,7.5-5.7c0.3-0.4,0.5-0.9,0.7-1.4
			c1-2.7,1.1-5.5,0.2-8.3c-2.8-9.5-13.1-16.8-25.1-13.4c-7.1,2-11.6,6.9-13.8,13.8c-1.7,5.2-1.4,10.5,0.1,15.7
			c2.4,8,6.7,14.9,12.5,20.8c5.7,5.8,12.3,10.5,19.6,14c11.7,5.6,23.9,9,36.8,9.6c8,0.4,15.9,0.4,23.8-0.9c4.2-0.7,8.2-1.6,12.2-3
			c1.9-0.6,2.2-1,2.2-3c0-2,0-4-0.1-6c-0.4-7.1-1-14.2-1.9-21.3c-0.9-7-2.1-13.9-3.8-20.7c-2.1-8.1-4.7-16.1-8.2-23.7
			c-1.7-3.7-3.6-7.2-6.2-10.4c-3.1-3.8-7.1-6.6-11.9-7.6c-8.6-1.9-16.6-0.2-23.9,4.8c-2.8,1.9-4.7,4.6-6,7.7c-0.9,2.2-1.5,4.6-1.7,7
			c-0.4,4.9,0.9,9.3,4,13.2c0.3,0.3,0.6,0.7,0.9,0.9c2.9,2.4,6.2,3.9,9.9,4.6c3.7,0.6,6.7-0.5,9.1-3.3c1.6-1.8,2.7-3.9,3.4-6.2
			c0.4-1.5,0.7-3,0.5-4.6c-0.1-1-0.3-1.9-0.9-2.7c-0.8-1.1-1.3-1.2-2.4-0.5c-0.7,0.5-1.5,0.8-2.4,0.7c-1.4-0.1-2.3-1.4-1.9-2.7
			c0.2-0.6,0.5-1.3,1-1.7c1-1.1,2.3-1.8,3.9-2.1c2.6-0.4,4.7,0.6,6.4,2.5c1.7,2,2.6,4.4,2.7,7c0.2,7-2.6,12.6-8.1,16.7
			c-2.9,2.2-6.2,3.1-9.9,2.5c-4.8-0.8-9.2-2.3-13-5.4C142.9,290.9,142.8,290.9,142.5,290.7z"/>
		<path class="st14" d="M158.3,320.8c0.2-6,1.5-11.8,4.2-17.3c0.9-1.9,2.2-3.6,4-4.7c0.6-0.4,1.3-0.7,2-0.9c1.6-0.4,2.7,0.9,2.3,2.4
			c-0.1,0.6-0.4,1.1-0.7,1.6c-2.2,3.1-3.2,6.7-4,10.3c-0.8,3.6-1.2,7.3-0.8,11c0.3,2.6,0.8,5.1,2,7.5c2.6,4.9,6.8,7.5,12.2,7.9
			c1.8,0.2,3.6,0.1,5.3-0.4c1.2-0.4,2.3-1,3.2-1.9c2.8-2.8,4.1-6.2,3.1-10.2c-1.1-4.1-5.5-6-9.1-4c-1.1,0.6-1.9,1.5-2.5,2.7
			c-0.6,1.1-0.1,2,0.5,2.9c0.3,0.4,0.7,0.8,1,1.3c0.5,0.8,0.4,1.6,0,2.2c-0.5,0.6-1.3,0.8-2.1,0.5c-0.5-0.2-1.1-0.5-1.5-0.9
			c-2.1-2-3-4.5-2.1-7.4c1.8-5.9,8.3-8.9,14.1-6.3c3.8,1.7,6.2,4.6,7.1,8.7c1.1,5.1-0.1,9.7-3.3,13.8c-2.6,3.4-6.1,4.9-10.2,5.4
			c-4.1,0.5-8-0.3-11.8-1.9c-5.4-2.3-8.9-6.5-11-12C158.8,327.9,158.4,324.5,158.3,320.8z"/>
		<path class="st14" d="M142.7,310c4.5,0.3,7.7,2.2,9.5,6.1c1.1,2.2,1.5,4.6,0.7,7c-1,3.2-3.7,5-7.1,4.8c-1.3-0.1-2.5-0.6-3.6-1.4
			c-0.3-0.2-0.5-0.5-0.7-0.9c-0.5-1.1,0.2-2.2,1.4-2.1c0.6,0,1.3,0.3,1.9,0.6c1.4,0.6,2.8,0.1,3.4-1.3c0.5-1,0.5-2,0-3
			c-1.1-2.5-3.5-3.8-6.2-3.1c-3.2,0.9-5.5,3.5-6,6.9c-0.4,2.6,0.2,5,1.5,7.3c2.2,4,5.6,6.7,9.9,8.2c0.6,0.2,1.3,0.4,1.9,0.7
			c0.5,0.2,1.1,0.6,1,1.3c-0.1,0.7-0.6,1-1.2,1.2c-0.9,0.3-1.9,0.4-2.9,0.3c-2.4-0.4-4.6-1.1-6.7-2.4c-5.1-3.1-8.7-7.4-9.7-13.5
			c-1.2-7.2,2.8-14.5,10.1-16.3C141.1,310.2,142,310.1,142.7,310z"/>
		<path class="st14" d="M193.9,292.3c-0.1,2.4-0.3,4.7-1,6.9c-0.9,2.7-2.5,4.9-4.9,6.5c-6,4.1-12.1-0.1-13.7-4.5
			c-1.1-3.1-0.9-6.1,1-8.8c1.2-1.7,2.9-2.5,4.9-2.7c0.5-0.1,1.1,0.1,1.6,0.3c1.3,0.6,1.5,2.1,0.5,3c-0.4,0.4-1.1,0.7-1.6,0.9
			c-0.6,0.3-1.1,0.5-1.5,1.1c-1.7,2.4-0.6,6,2.2,7.1c1.1,0.4,2.1,0.3,3.1-0.4c1.8-1.2,2.8-2.9,3.1-4.9c0.6-3.3,0.4-6.6-0.5-9.8
			c-0.9-3.3-2.1-6.4-3.8-9.4c-1.2-2.1-2.3-4.2-3.5-6.4c-0.3-0.6-0.6-1.1-0.7-1.7c-0.4-1.5,0.6-2.5,2.1-2.1c0.7,0.2,1.4,0.5,1.9,0.9
			c0.9,0.7,1.8,1.6,2.5,2.5c4.2,5.4,6.9,11.5,7.9,18.3c0,0.3,0.1,0.5,0.1,0.8C193.8,290.8,193.9,291.6,193.9,292.3z"/>
		<path class="st14" d="M100.9,304c0.4-6.2,2-11.4,5.8-15.7c0.8-0.9,1.7-1.7,2.7-2.4c0.8-0.5,1.7-0.8,2.7-1.1c0.4-0.1,0.9-0.1,1.3,0
			c1.2,0.3,1.6,1.3,1,2.3c-0.2,0.4-0.6,0.8-0.9,1.1c-4,3.6-6,8.3-6.8,13.5c-0.7,4.5,0.5,8.5,3.5,11.9c0.8,0.9,1.7,1.6,2.9,2.1
			c0.7,0.3,1.5,0.6,2.2-0.1c0.6-0.6,0.9-1.4,0.6-2.4c-0.2-0.5-0.2-1.1-0.1-1.6c0.3-1.2,1.5-1.7,2.6-1.1c0.7,0.4,1.1,1,1.3,1.7
			c1.2,3.6-1.7,9-6.7,8.4c-2.2-0.2-4-1.1-5.6-2.5c-2.9-2.5-4.7-5.8-5.7-9.5C101.2,306.9,101.1,305.2,100.9,304z"/>
	</g>
	<g>
		<path class="st6" d="M109.6,245.9c-0.3-0.4-0.5-0.7-0.8-1c-1.7-2.4-3.2-4.8-3.8-7.7c-0.8-4.3,2.6-7.6,6.9-6.6
			c1.8,0.4,3.4,1.3,4.7,2.6c1,1.1,2,2.2,2.8,3.4c1.1,1.7,2.2,3.5,3.1,5.4c1.6,3.2,3,6.5,4.1,10c1.2,3.8-0.3,6.5-4.1,7.6
			c-2.5,0.7-5,1-7.6,0.8c-3.7-0.2-7.2-1-10.6-2.4c-1.2-0.5-2.3-1.1-3.3-1.8c-0.7-0.5-1.4-1.1-1.9-1.7c-2.2-2.8-1.4-6.5,1.8-8.1
			c1.1-0.6,2.4-0.9,3.7-0.8C106.2,245.6,107.8,245.8,109.6,245.9z"/>
		<g>
			<path class="st6" d="M264.1,197.2c0.4-0.4,0.6-0.8,0.9-1.1c6.8-8.8,14.3-17.1,22.4-24.8c3.5-3.3,7.1-6.3,11.1-9
				c4.2-2.9,8.6-5.2,13.6-6.6c2.4-0.7,4.8-1,7.3-0.5c5,1,7.8,4.1,8.9,9c0.6,2.8,0.7,5.6,0.3,8.4c-0.9,7.7-3.2,15-6,22.2
				c-3.9,9.8-9,19.1-14.9,27.9c-5.9,9-12.3,17.6-19.7,25.3c-7.9,8.3-16.2,16.2-25.6,22.8c-6.4,4.5-13,8.6-20.2,11.6
				c-5.8,2.4-11.8,3.8-18.1,4.2c-3.2,0.2-6.3-0.2-9.3-1.3c-3.1-1.1-5.4-3.1-6.9-6c-1.2-2.2-1.9-4.6-2.3-7.1
				c-1.2-6.8-1.4-13.7-0.6-20.6c1.3-11.5,3.7-22.8,6.6-34c4.1-15.5,9-30.7,14.5-45.8c2.2-6.1,5-11.9,8-17.6c2-3.7,4.3-7.1,7.2-10.2
				c1.7-1.8,3.5-3.5,5.6-4.8c2.3-1.4,4.7-2.2,7.4-2.1c2.5,0.1,4.6,1,6.5,2.7c2.4,2.1,4,4.7,5.1,7.6c1.3,3.5,2,7.1,2.4,10.7
				c0.8,6.8,0.3,13.5-0.6,20.2c-0.8,6.2-2,12.3-3.6,18.3C264.1,196.8,264.1,197,264.1,197.2z M209.7,260.2c0,3.5,0.3,7,0.8,10.4
				c0.3,2.1,0.8,4.2,1.8,6.1c0.9,1.9,2.4,3.2,4.4,3.9c2.2,0.8,4.4,1.1,6.7,0.9c6.3-0.3,12.3-1.8,18.1-4.4c5.4-2.5,10.4-5.5,15.2-8.9
				c11.1-7.7,20.8-17,29.7-27c8-9,14.7-19,21-29.2c5.2-8.5,9.6-17.3,12.8-26.7c1.7-4.9,3.1-9.9,3.4-15.2c0.1-2,0-3.9-0.6-5.8
				c-0.8-2.4-2.4-3.7-5-4c-1.4-0.2-2.8,0-4.2,0.4c-4.3,1.2-8.1,3.2-11.8,5.8c-4.2,2.9-8,6.2-11.7,9.7
				c-11.7,11.1-22.1,23.3-31.3,36.5c-0.4,0.5-0.8,1.1-1.3,1.5c-1.5,1-3.4,0.1-3.6-1.6c0-0.5,0.1-1,0.2-1.4c0.3-1.1,0.8-2.1,1-3.2
				c1-3.9,2.1-7.8,3-11.8c1.4-6,2.5-12.1,3-18.2c0.3-3.4,0.6-6.8,0.9-10.2c0.6-5.5,0.6-11.1-0.5-16.5c-0.5-2.3-1.1-4.5-2.6-6.5
				c-1.3-1.8-3.1-2.8-5.3-2.7c-2.7,0.2-5.2,1-7.1,2.9c-0.8,0.8-1.6,1.6-2.3,2.4c-2.7,3.1-4.9,6.7-6.7,10.4
				c-2.7,5.4-5.2,10.9-7.2,16.6c-2.4,7.1-4.7,14.2-7,21.4c-5.5,17-10,34.1-12.7,51.8C210.2,251.7,209.7,255.9,209.7,260.2z"/>
			<path class="st6" d="M230.5,224.4c0.3,1.9,0.5,3.7,0.9,5.6c1.3,7.1,3.5,14,5.8,20.8c1.3,3.8,2.6,7.6,3.8,11.4
				c0.5,1.7,0.9,3.5,1.1,5.2c0.3,3-2.2,5.1-5.1,4.1c-0.8-0.3-1.7-0.7-2.3-1.3c-1.2-1-2.4-2-3.5-3.1c-1.4-1.5-2.6-3.1-3.9-4.6
				c-1.2-1.4-2.4-2.7-3.6-4.1c-0.4-0.5-0.9-0.8-1.5-1.3c-0.2,1.5-0.2,2.8,0,4.2c0.4,3.9,1.2,7.7,2,11.5c0.1,0.5,0.1,1.1,0.1,1.7
				c0,0.8-0.4,1.5-1.2,1.7c-0.8,0.3-1.5,0-1.9-0.7c-0.5-0.8-1-1.6-1.4-2.5c-1.2-3-2-6.2-2.6-9.4c-0.5-2.3-0.8-4.5-0.7-6.9
				c0.1-1.1,0.2-2.2,0.5-3.2c0.8-2.7,3.3-3.9,6-3.2c1.4,0.3,2.6,1,3.6,1.9c1.5,1.4,3,2.9,4.4,4.4c1,1,1.9,2.2,3,3.2
				c-0.1-0.3-0.2-0.7-0.3-1c-2-6.1-4-12.1-5.9-18.2c-1.5-4.8-2.4-9.8-3-14.8c-0.2-2-0.4-4-0.1-6c0.7-4.5,4.6-6.1,8.2-3.3
				c0.9,0.7,1.7,1.5,2.4,2.5c1.4,1.8,2.8,3.7,4,5.7c3.2,5.3,6.4,10.6,9.6,16c0.2,0.4,0.4,0.7,0.8,1c-0.2-0.5-0.3-1-0.5-1.4
				c-2.9-7.4-5.8-14.9-8.3-22.5c-3-9.4-5.4-18.9-7-28.7c-0.4-2.6-0.7-5.2-0.5-7.9c0.1-1.2,0.3-2.3,0.9-3.3c1.3-2.3,3.9-3.3,6.3-2.1
				c0.9,0.4,1.8,1.1,2.5,1.8c1.6,1.5,2.8,3.3,3.9,5.2c0.2,0.3,0.4,0.7,0.8,0.9c-0.3-2.9-0.7-5.8-0.9-8.6c-0.3-3.3-0.4-6.7-0.6-10
				c-0.1-1.3,0.2-2.7,0.7-3.9c1.2-3.1,4.1-4.2,7.1-2.6c0.7,0.4,1.4,1,2,1.6c0.7,0.6,1.2,1.3,1.8,1.9c0.6,0.7,0.9,1.4,0.8,2.3
				c-0.2,1.9-2.1,2.9-3.8,2c-0.9-0.4-1.7-0.9-2.7-1.4c-0.1,0.4-0.1,0.7-0.1,0.9c0.2,2.5,0.3,5,0.5,7.5c0.4,4.8,0.9,9.5,1.3,14.3
				c0.1,1.4,0,2.8-0.1,4.2c-0.2,1.7-0.8,3.1-2.5,3.8c-1.7,0.6-3.2,0-4.4-1.2c-0.9-0.9-1.7-2-2.4-3.1c-1.3-1.9-2.4-3.9-3.7-5.9
				c-0.3-0.5-0.6-1-0.9-1.5c-0.1,0-0.2,0-0.2,0.1c0.1,0.9,0.2,1.8,0.3,2.7c1.3,8.3,3.4,16.5,5.8,24.6c2.7,9.1,6.1,18,9.4,26.9
				c1.5,4.1,2.9,8.4,4.2,12.6c0.4,1.1,0.6,2.3,0.6,3.5c0,2.2-1.5,3.8-3.5,4.1c-0.9,0.1-1.8-0.1-2.6-0.5c-0.8-0.5-1.5-1-2.1-1.6
				c-1.3-1.5-2.6-3-3.8-4.5c-2.9-3.9-5.2-8.3-7.7-12.4c-2.7-4.5-5.5-9-8.3-13.5c-0.3-0.5-0.7-1-1-1.4
				C230.7,224.4,230.6,224.4,230.5,224.4z"/>
			<path class="st6" d="M293.4,192.6c-0.5,1-0.9,1.7-1.1,2.5c-0.7,1.9-1,3.9-1.1,5.9c-0.1,2.2-0.2,4.3-0.2,6.5
				c-0.1,3-0.1,6.1-0.3,9.1c-0.1,1.3-0.4,2.7-0.8,3.9c-1,2.9-3.4,4-6.3,3.2c-1.6-0.4-3-1.3-4.3-2.3c-0.9-0.7-1.8-1.5-2.7-2.2
				c-0.5-0.4-1.1-0.8-1.7-1.3c-0.2,0.6-0.5,1.1-0.6,1.6c-0.7,2.6-0.9,5.4-0.8,8.1c0.1,3.2,0.3,6.5,0.5,9.7c0.1,2.5,0.4,5-0.1,7.5
				c-0.1,0.7-0.4,1.5-0.7,2.1c-1,1.7-2.9,2.4-4.7,1.5c-0.7-0.3-1.4-0.8-1.9-1.4c-1-1.2-2.1-2.3-2.9-3.6c-2.8-4.4-5.3-9-7.1-13.9
				c-0.5-1.2-0.7-2.5-1.1-3.7c-0.1-0.3-0.1-0.7,0-1c0.2-1.8,2-2.6,3.4-1.4c0.6,0.5,1.2,1.2,1.6,2c1.1,1.8,2.1,3.7,3.1,5.5
				c1.3,2.3,2.5,4.6,3.7,6.9c0.2,0.3,0.3,0.6,0.7,0.8c-0.1-1-0.1-2.1-0.2-3.1c-0.4-4.7-0.7-9.4-0.1-14.1c0.2-1.8,0.5-3.5,1.1-5.2
				c1.6-4.8,5.9-6.2,10.2-3.5c1.4,0.9,2.6,2,3.9,3c0.5,0.4,1,0.8,1.7,1.3c0.1-0.6,0.1-1,0.2-1.4c0.1-2.9,0.2-5.8,0.2-8.7
				c0.1-4.1,0.2-8.1,1.1-12.1c0.3-1.4,0.8-2.7,1.3-4c0.4-1.2,1.2-2.2,2.1-3c2.1-1.8,4.4-2.3,6.9-1.2c1.1,0.5,2.1,1.2,3.1,2
				c1.2,1,2.3,2.1,3.4,3.2c0.3,0.3,0.7,0.6,1.2,1c0.4-1.6,0.6-3,0.6-4.4c0-3,0-6.1,0-9.1c0-1,0.1-2,0.2-3c0.1-0.5,0.2-1,0.4-1.4
				c0.5-0.9,1.3-1.3,2.3-1.2c1.1,0.1,1.8,0.7,2.1,1.7c0.3,1,0.5,2.1,0.6,3.2c0.5,4.5,0.7,9,0.3,13.6c-0.1,1.5-0.5,3-1.1,4.4
				c-1.4,3-4,4.1-7.2,3c-1.4-0.5-2.6-1.4-3.6-2.3c-1.1-1.1-2.2-2.2-3.4-3.2C294.5,193.5,294,193.1,293.4,192.6z"/>
		</g>
	</g>
	<g>
		<path class="st5" d="M231.7,337.6c0.3-0.3,0.5-0.5,0.8-0.7c0.9-0.6,1.8-1.4,2.9-1.9c3-1.4,6.1-0.3,7.7,2.7c1,1.8,1.2,3.8,1.1,5.9
			c-0.1,1.9-0.4,3.8-1,5.6c-1.2,4.1-2.9,8-5.2,11.7c-1.2,1.8-2.5,3.4-4.3,4.7c-0.4,0.3-0.9,0.6-1.3,0.9c-2.2,1.3-4.4,1.2-6.4-0.4
			c-1.1-0.9-2.1-1.8-2.9-2.9c-1.5-1.9-2.7-4.1-3.7-6.4c-1.8-4.4-3.3-8.9-4.2-13.5c-0.7-3.6-0.9-7.2-0.5-10.9c0.2-1.8,0.7-3.4,1.4-5
			c0.6-1.3,1.6-2.3,2.8-3.1c2.5-1.6,5.2-1.5,7.4,0.4c0.9,0.8,1.7,1.8,2.4,2.8c1.8,2.7,2.6,5.8,2.9,9c0,0.3,0,0.7,0.1,1
			C231.6,337.4,231.6,337.4,231.7,337.6z M239.3,343.1c0,0-0.1,0-0.1,0c0-0.7-0.1-1.3-0.2-2c0-0.3-0.1-0.7-0.3-1
			c-0.4-1.1-1.1-1.4-2.1-0.7c-0.8,0.5-1.6,1.1-2.2,1.8c-1.4,1.6-2.3,3.4-2.9,5.5c-0.1,0.4-0.2,0.8-0.4,1.2c-0.4,0.8-1.2,1.2-2.1,1.2
			c-0.9,0-1.7-0.6-2-1.6c-0.1-0.4-0.2-0.9-0.2-1.3c0-1.4,0-2.9-0.1-4.4c-0.1-1.9-0.2-3.8-0.4-5.7c-0.3-2.3-1.1-4.5-2.5-6.4
			c-0.4-0.5-0.8-0.9-1.3-1.3c-0.4-0.3-0.9-0.3-1.2,0.1c-0.4,0.6-0.9,1.2-1,1.8c-0.3,1.4-0.6,2.9-0.6,4.4c-0.2,5.1,0.5,10.1,2,15
			c1.1,3.6,2.3,7.1,4.5,10.1c0.5,0.7,1.1,1.4,1.8,2c1.1,1,1.4,0.9,2.6,0.1c1.4-1,2.4-2.3,3.2-3.7c2.1-3.3,3.5-6.9,4.5-10.6
			C238.9,346.1,239,344.6,239.3,343.1z"/>
		<g>
			<path class="st5" d="M263.1,85.7c0.5-0.5,0.9-0.8,1.2-1.1c3.9-3.7,8.4-6.5,13.6-8c3-0.9,5.9-1.3,9-0.8c7.3,1.1,12.3,7.7,11,15.1
				c-0.6,3.6-2.1,6.9-4.3,9.8c-3,4.1-6.8,7.4-11.2,10c-2.9,1.7-5.9,3.3-9,4.7c-5.3,2.3-10.5,4.7-15.5,7.6c-5.2,3-9.4,6.8-12.6,11.9
				c-0.6,0.9-1.2,1.8-1.8,2.7c-0.8,1.2-2.2,1.6-3.6,0.6c-1-0.7-1.3-1.6-1.2-2.7c0.4-3.1,0.7-6.2,1-9.3c0.3-3.2,0.1-6.5-0.2-9.7
				c-0.4-5.3-1.9-10.4-3.1-15.6c-1.3-5.4-2.1-10.8-1.9-16.3c0.1-3.9,1.1-7.6,3-11c1.2-2,2.7-3.8,4.5-5.3c2.4-1.9,5.1-3,8.2-3.2
				c2.5-0.2,4.8,0.7,6.7,2.3c2.9,2.5,4.5,5.7,5.3,9.3c0.5,2.4,0.7,4.8,0.7,7.2C263.1,84.2,263.1,84.8,263.1,85.7z M244.9,126.4
				c0.1,0,0.1,0,0.2,0.1c0.2-0.2,0.4-0.4,0.6-0.6c2-2.2,4.3-4.1,6.7-5.8c3.9-2.7,8.2-4.9,12.5-6.8c4.4-1.9,8.7-3.8,12.9-6.1
				c4.1-2.2,7.8-5,10.8-8.5c1.7-2.1,3.1-4.4,3.9-7c0.4-1.6,0.6-3.2,0.3-4.7c-0.7-2.8-2.6-4.5-5.3-5.4c-2.3-0.7-4.6-0.6-6.8,0.1
				c-8.6,2.6-14.9,7.9-18.8,16.1c-0.2,0.4-0.4,0.9-0.6,1.3c-0.7,1.4-2.1,2-3.5,1.5c-1.4-0.5-2.1-1.8-1.8-3.4c0.3-1.5,0.6-3,0.8-4.5
				c0.7-3.8,1-7.7,0.8-11.5c-0.2-2.3-0.6-4.5-1.6-6.6c-0.6-1.3-1.3-2.4-2.4-3.3c-1.1-1-2.4-1.3-3.8-1c-1.9,0.4-3.6,1.2-5,2.6
				c-1.6,1.5-2.7,3.3-3.5,5.4c-0.9,2.3-1.3,4.7-1.3,7.2c-0.1,4.3,0.7,8.4,1.6,12.6c1.2,5,2.5,9.9,3.1,14.9c0.4,3.5,0.7,7,0.4,10.5
				C245.1,124.4,245,125.4,244.9,126.4z"/>
			<path class="st5" d="M285.9,96.4c-2.2-0.1-4.2-2-4.4-4.3c-0.1-2.2,1.5-4.2,3.7-4.4c0.5-0.1,1,0,1.4,0.1c1.7,0.4,3.3,2.3,3.5,4.1
				c0.2,1.6-0.8,3.3-2.4,4C287.1,96.1,286.5,96.2,285.9,96.4z"/>
			<path class="st5" d="M258.8,104.5c2.3,0,4.2,1.9,4.1,4.2c0,2.3-2,4.2-4.3,4.2c-2.3,0-4.3-1.9-4.3-4.1
				C254.3,106.4,256.3,104.4,258.8,104.5z"/>
			<path class="st5" d="M243.9,81.2c0-2.3,2-4.2,4.3-4.1c2.2,0,3.9,1.9,3.9,4c0,2.2-2.1,4.2-4.4,4.2
				C245.6,85.2,243.9,83.4,243.9,81.2z"/>
			<path class="st5" d="M272.4,99.4c-2.3,0-4.1-1.9-4.1-4.1c0-2.1,1.9-3.9,4.2-4c2.2,0,4.1,1.9,4,4.1
				C276.5,97.6,274.6,99.4,272.4,99.4z"/>
			<path class="st5" d="M248.1,91.9c2.2,0.1,3.9,1.9,3.8,4c0,2.2-2,4.1-4.1,4c-2.2-0.1-4-2-3.9-4.2C244,93.6,245.9,91.8,248.1,91.9z
				"/>
			<path class="st5" d="M252.5,114c0,1.7-1.6,3.2-3.3,3.2c-1.6,0-2.9-1.3-2.9-2.9c0-1.7,1.6-3.2,3.4-3.2
				C251.3,111.1,252.5,112.4,252.5,114z"/>
			<path class="st5" d="M273.9,104.5c0,1.5-1.4,3.1-2.8,3.1c-1.4,0-2.6-1.4-2.6-2.9c0-1.5,1.2-2.7,2.8-2.7
				C272.8,102,273.9,103.1,273.9,104.5z"/>
		</g>
	</g>
	<g>
		<path class="st4" d="M158.4,135.8c0-2.9,0-5.5,0-8.2c-0.1-8.7,2-16.9,5.4-24.8c2.7-6.2,5.9-12.1,10.3-17.3
			c4-4.6,8.6-8.5,14.1-11.1c3.2-1.5,6.6-2.4,10.1-2.5c3.8-0.1,7.5,0.7,10.9,2.3c4.5,2,8.3,5.1,11.4,8.9c4.1,5.1,6.8,11,8.6,17.3
			c2.2,8,3,16.1,2.5,24.4c-0.5,8.3-1.9,16.5-3.8,24.5c-2.4,9.6-4.6,19.3-7.6,28.8c-4.2,13.3-8.8,26.5-14.3,39.4
			c-1.6,3.8-2.9,7.7-4.4,11.6c-1,2.5-2.1,4.9-3.1,7.4c-0.3,0.7-0.8,1.4-1.3,2.1c-1.1,1.4-2.5,2-4.3,1.8c-2.1-0.2-4.1-0.3-6.2-0.6
			c-5.7-0.6-11.3-1.5-16.9-2.7c-10.5-2.2-20.8-5.1-30.8-8.8c-12-4.4-23.1-10.6-32.9-18.9c-9.6-8.1-17.5-17.5-23.4-28.6
			c-4.4-8.2-7.1-16.9-8.1-26.2c-1.2-11.9,0.7-23.2,6.4-33.8c2.6-4.9,6.1-9.3,10.5-12.7c5.5-4.2,11.7-6.6,18.5-7.5
			c6-0.8,11.9-0.1,17.7,2c3.3,1.2,6.2,3.2,9,5.3c3.6,2.8,6.9,6,9.8,9.5c4.5,5.5,8.8,11.3,11.8,17.8
			C158.1,135.5,158.2,135.5,158.4,135.8z M190.6,233c1.3-3.7,2.6-7.3,3.8-10.9c3.6-11.4,6.9-22.9,10.1-34.4
			c1.4-5.3,2.8-10.7,3.7-16.2c0.7-4.8,1.5-9.6,2.1-14.3c0.4-2.9,0.8-5.8,0.9-8.8c0.1-4.2,0-8.5-0.2-12.7c-0.2-4.8-0.9-9.5-2.2-14.1
			c-1.6-5.7-3.8-11-7.1-15.9c-2.5-3.6-5.7-6.4-9.7-8.4c-1.9-0.9-3.9-1.4-6-1.3c-3.4,0.2-6.2,1.6-8.7,3.8c-2.4,2.2-4.4,4.8-5.9,7.6
			c-3.1,5.6-4.5,11.8-5.4,18.1c-0.8,6.2-1.1,12.5-1.3,18.8c-0.1,3-0.2,5.9-0.3,8.9c0,0.8-0.1,1.6-0.2,2.3c-0.1,1-0.7,1.7-1.6,1.9
			c-0.9,0.2-1.7-0.2-2.2-1.1c-0.3-0.4-0.5-0.9-0.6-1.4c-0.8-2.1-1.5-4.1-2.2-6.2c-0.9-2.4-1.7-4.8-2.7-7.1
			c-2.5-5.7-6.3-10.3-11.5-13.8c-7.8-5.4-19.6-5.9-28.1,0.9c-2.9,2.3-5.3,5.1-7.2,8.3c-4.6,7.7-6.1,16.1-5.3,24.9
			c0.9,9.1,4,17.4,8.8,25.2c3.2,5.1,7,9.8,11.2,14.1c8.4,8.5,18.2,15.2,28.8,20.6c5.5,2.8,11.2,5.2,17.2,6.6
			c5.3,1.3,10.6,2.3,15.9,3.4C186.5,232.3,188.6,232.6,190.6,233z"/>
		<path class="st5" d="M167.2,180c-0.1-0.7-0.1-1.3-0.2-2c-0.7-7.5,0-14.8,2.4-21.9c0.9-2.7,2.2-5.3,4.1-7.5c1-1.1,2-2.1,3.2-2.9
			c3.4-2.4,7-2.6,10.7-0.7c1.9,0.9,3.4,2.3,4.7,3.9c2.6,3.1,4.2,6.8,5.3,10.6c1.1,3.5,1.5,7,1.8,10.6c0.5,6.7,0,13.4-1.1,20
			c-1,6.2-2,12.5-3.2,18.7c-1.2,6-2.7,11.9-4.1,17.8c-0.6,2.6-1.5,3.6-4.6,3.6c-2.7,0-5.4-0.6-8-1.4c-8.4-2.4-16-6.4-23.1-11.4
			c-5-3.5-9.5-7.6-13.1-12.5c-4.3-5.8-7.4-12.1-8.8-19.2c-0.7-3.8-0.9-7.6,0.1-11.4c0.8-3.1,2.4-5.6,5.1-7.5
			c1.6-1.1,3.3-1.7,5.3-1.8c4-0.1,7.7,1,11.1,3.1c3.4,2.1,6.2,4.7,8.7,7.7c1.1,1.3,2.2,2.7,3.3,4C167.1,180,167.2,180,167.2,180z
			M185.7,226.5c0.1-0.2,0.2-0.3,0.2-0.5c1.4-6.5,3-13,4.3-19.6c1-5.5,1.8-11,2.5-16.5c1-6.7,1.4-13.4,0.9-20.2
			c-0.4-4.2-1.2-8.3-2.9-12.2c-0.8-1.9-1.7-3.7-3.1-5.1c-0.8-0.8-1.7-1.6-2.6-2.2c-1.7-1-3.5-0.9-5.2,0.2c-1.2,0.8-2.3,1.7-3,2.9
			c-0.8,1.3-1.6,2.7-2.1,4.2c-1.8,4.7-2.5,9.6-2.5,14.6c0,6.5,1,12.8,2.3,19.1c0.1,0.5,0.2,1,0.2,1.4c0,1.1-0.5,1.9-1.5,2.4
			c-1.1,0.5-2.1,0.2-2.9-0.6c-0.4-0.4-0.7-0.8-0.9-1.2c-1.1-1.8-2.2-3.6-3.4-5.4c-2.7-4-5.7-7.7-9.1-10.9c-1.9-1.8-4-3.3-6.4-4.4
			c-1.9-0.9-3.9-1.4-6-1.5c-1.4-0.1-2.6,0.4-3.5,1.4c-0.6,0.6-1.1,1.3-1.5,2.1c-0.7,1.4-1,2.9-1.1,4.5c-0.3,3.7,0.3,7.3,1.5,10.8
			c2.8,8.1,7.6,14.9,14.1,20.5c5.8,5.1,12.4,8.9,19.4,12.2C177.1,224.2,181.3,225.5,185.7,226.5z"/>
		<path class="st14" d="M174.7,200.7c0.2-1.6,0.4-3.1,0.6-4.5c0.2-1.3,0.7-2.5,1.4-3.6c2.4-3.6,6.8-3.8,9.5-0.4
			c1.3,1.7,2,3.6,2.3,5.7c0.4,2.9,0.3,5.9-0.1,8.8c-0.4,3.4-1,6.7-2,9.9c-0.4,1.2-0.9,2.5-1.4,3.6c-1.1,2.2-3,3-5.3,2.3
			c-0.8-0.2-1.7-0.6-2.4-1c-2.6-1.7-5.3-3.4-7.8-5.3c-2-1.5-3.6-3.4-4.9-5.6c-0.8-1.3-1.3-2.7-1.6-4.3c-0.5-3.6,1.8-6.7,5.4-7.1
			c1.8-0.2,3.5,0.1,5.1,0.8C173.8,200.3,174.2,200.5,174.7,200.7z M181.4,195.1c-0.9,0.5-1.1,1.3-1.3,2.2c-0.6,2.7-0.4,5.4,0.1,8.1
			c0.1,0.5,0.2,1,0.1,1.5c-0.1,1.2-1.1,2.1-2.3,2.2c-0.8,0-1.5-0.3-2-0.8c-0.5-0.5-1-1.1-1.6-1.6c-1.4-1.3-3.1-2.2-5-2.4
			c-1.5-0.1-2,0.6-1.6,2c0.7,2.5,2.1,4.6,4.1,6.3c2.3,2,4.9,3.7,7.6,5.1c0.3,0.2,0.7,0.3,1.1,0.5c0.1-0.2,0.2-0.3,0.2-0.4
			c0.1-0.2,0.2-0.5,0.3-0.7c1.6-5.3,2.6-10.7,2.3-16.2c-0.1-1.4-0.2-2.8-0.9-4.1C182.3,196,182,195.4,181.4,195.1z"/>
	</g>
</g>
</svg>
